# xmcd
#
# Track frame offsets:
#	182
#	23300
#	45865
#	64997
#	78245
#	98947
#	120880
#	132050
#	151222
#	173995
#	192755
#	218312
#
# Disc length: 3116 seconds
#
# Revision: 4
# Processed by: cddbd v1.5.2PL0 Copyright (c) Steve Scherf et al.
# Submitted via: EZCDAudioConverter 6.0.7.1
#
DISCID=810c2a0c
DTITLE=Kenny Rogers - Timepiece
DYEAR=1994
DGENRE=Country
TTITLE0=I Remember You
TTITLE1=But Beautiful
TTITLE2=When I Fall In Love
TTITLE3=Love Is Here To Stay
TTITLE4=The Nearness Of You
TTITLE5=My Funny Valentine
TTITLE6=Love Is Just Around The Corner
TTITLE7=Where Or When
TTITLE8=My Romance
TTITLE9=In The Wee Small Hours Of The Morning
TTITLE10=I Get Along Without You Very Well
TTITLE11=You Are So Beautiful
EXTD=
EXTT0=
EXTT1=
EXTT2=
EXTT3=
EXTT4=
EXTT5=
EXTT6=
EXTT7=
EXTT8=
EXTT9=
EXTT10=
EXTT11=
PLAYORDER=
